<svg width="360" height="360" viewBox="0 0 360 360" fill="none" xmlns="http://www.w3.org/2000/svg">
<path d="M180.001 7.5C275.269 7.5 352.5 84.7311 352.5 180C352.5 275.269 275.269 352.5 180.001 352.5C84.7311 352.5 7.5 275.269 7.5 180C7.5 84.7312 84.7311 7.5 180.001 7.5Z" stroke="black" stroke-width="15"/>
<path d="M180.402 42.645C256.736 42.645 318.616 104.526 318.616 180.86C318.616 257.193 256.736 319.074 180.402 319.074C104.068 319.074 42.188 257.193 42.188 180.86C42.188 104.526 104.068 42.645 180.402 42.645Z" stroke="black" stroke-width="15"/>
<path d="M180.423 81.218C235.454 81.218 280.066 125.829 280.066 180.862C280.066 235.893 235.454 280.504 180.423 280.504C125.392 280.504 80.781 235.893 80.781 180.862C80.781 125.829 125.392 81.218 180.423 81.218Z" stroke="black" stroke-width="15"/>
<path d="M179.576 113.782C215.67 113.782 244.932 143.043 244.932 179.139C244.932 215.233 215.67 244.495 179.576 244.495C143.481 244.495 114.219 215.233 114.219 179.139C114.219 143.043 143.481 113.782 179.576 113.782Z" stroke="black" stroke-width="15"/>
</svg>
