<svg width="360" height="360" viewBox="0 0 360 360" fill="none" xmlns="http://www.w3.org/2000/svg">
<path d="M180.001 7.5C275.269 7.5 352.5 84.7311 352.5 180C352.5 275.269 275.269 352.5 180.001 352.5C84.7311 352.5 7.5 275.269 7.5 180C7.5 84.7312 84.7311 7.5 180.001 7.5Z" stroke="black" stroke-width="15"/>
<path d="M180.5 58.5C247.852 58.5 302.5 113.318 302.5 181C302.5 248.682 247.852 303.5 180.5 303.5C113.148 303.5 58.5 248.682 58.5 181C58.5 113.318 113.148 58.5 180.5 58.5Z" stroke="black" stroke-width="15"/>
<path d="M180.5 108.5C220.22 108.5 252.5 140.915 252.5 181.001C252.5 221.085 220.22 253.5 180.5 253.5C140.779 253.5 108.5 221.085 108.5 181.001C108.5 140.914 140.78 108.5 180.5 108.5Z" stroke="black" stroke-width="15"/>
</svg>
